<svg width="300" height="157" viewBox="0 0 300 157" fill="none" xmlns="http://www.w3.org/2000/svg">
<g clip-path="url(#clip0_213_777)">
<path d="M277.244 94.0297V116.274C271.121 119.584 264.114 121.462 256.666 121.462C237.036 121.462 220.456 108.413 215.129 90.517L227.275 78.3752L230.882 74.7637C230.734 75.8642 230.662 76.9917 230.662 78.1326C230.662 92.4934 242.305 104.137 256.666 104.137C265.039 104.137 272.487 100.179 277.244 94.0297Z" fill="#343E96"/>
<path d="M202.861 103.895V114.469C202.78 116.899 202.493 119.279 202.021 121.588C198.001 141.362 180.518 156.239 159.559 156.239C138.599 156.239 121.049 141.299 117.078 121.463H134.997C138.532 131.628 148.194 138.914 159.559 138.914C170.196 138.914 179.337 132.531 183.366 123.39L202.861 103.895Z" fill="#343E96"/>
<path d="M86.6319 76.4576V0H69.3379V78.1286C69.3379 84.0985 67.33 89.5921 63.9475 93.9808C59.195 100.153 51.7294 104.133 43.3339 104.133C28.9731 104.133 17.33 92.4894 17.33 78.1286C17.33 63.7678 28.9731 52.1247 43.3339 52.1247C51.7294 52.1247 59.195 56.1046 63.9475 62.2765V40.0054C57.816 36.6858 50.7951 34.7992 43.3339 34.7992C19.4008 34.7992 0 54.2 0 78.1286C0 102.057 19.4008 121.463 43.3339 121.463C50.7951 121.463 57.816 119.576 63.9475 116.252C69.4053 113.296 74.1622 109.2 77.8906 104.281C83.0833 97.4306 86.286 88.9812 86.6319 79.8041C86.6589 79.2516 86.6679 78.6901 86.6679 78.1286C86.6679 77.5671 86.6589 77.0102 86.6319 76.4576Z" fill="#343E96"/>
<path d="M299.999 79.2425C299.999 79.804 299.99 80.3655 299.963 80.918L299.995 121.251H282.701L282.669 79.2425C282.669 78.7933 282.656 78.3486 282.633 77.9039V77.8589H282.629C282.346 72.4057 280.383 67.4017 277.243 63.3454C272.49 57.1959 265.038 53.2385 256.665 53.2385C255.524 53.2385 254.397 53.3104 253.296 53.4586C247.461 54.2088 242.232 56.8995 238.28 60.8524L227.274 71.8622L223.461 75.6714L213.762 85.3695L205.91 93.2214L202.86 96.2715L200.489 98.6432L190.894 108.139L189.227 109.792C188.064 110.888 186.842 111.912 185.566 112.874C178.321 118.318 169.314 121.543 159.558 121.543C149.801 121.543 140.795 118.318 133.554 112.874C127.611 108.409 122.854 102.452 119.845 95.5573C117.518 90.2433 116.229 84.3768 116.229 78.2093C116.229 54.2807 135.629 34.8799 159.558 34.8799C169.314 34.8799 178.321 38.1051 185.566 43.5494V34.9203H202.86V64.136L201.109 65.8834L199.415 67.5769L187.341 79.6512L185.566 81.4301L185.337 81.6591C185.486 80.5406 185.566 79.4042 185.566 78.2453V78.2093C185.566 63.8485 173.923 52.2054 159.558 52.2054C145.193 52.2054 133.554 63.8485 133.554 78.2093V78.2453C133.563 84.8978 136.069 90.9665 140.189 95.5573C144.95 100.871 151.863 104.213 159.558 104.213C160.73 104.213 161.885 104.137 163.012 103.984C169.31 103.149 174.894 100.063 178.932 95.5573C178.95 95.5797 185.566 89.0484 185.566 89.0484L191.253 83.3616L203.229 71.3905L207.038 67.5769L207.096 67.5185L226.021 48.5983C233.864 40.7599 244.699 35.9085 256.665 35.9085C258.745 35.9085 260.793 36.0568 262.792 36.3398C267.958 37.0675 272.832 38.7115 277.243 41.0968C290.795 48.4186 299.999 62.757 299.999 79.2425Z" fill="#343E96"/>
<path d="M110.093 46.9229H92.7988V121.462H110.093V46.9229Z" fill="#343E96"/>
<path d="M101.45 34.7989C106.225 34.7989 110.097 30.9275 110.097 26.1519C110.097 21.3763 106.225 17.5049 101.45 17.5049C96.6741 17.5049 92.8027 21.3763 92.8027 26.1519C92.8027 30.9275 96.6741 34.7989 101.45 34.7989Z" fill="#343E96"/>
</g>
<defs>
<clipPath id="clip0_213_777">
<rect width="300" height="156.239" fill="white"/>
</clipPath>
</defs>
</svg>
