<svg width="67" height="66" viewBox="0 0 67 66" fill="none" xmlns="http://www.w3.org/2000/svg">
<path d="M33.04 0C51.2871 0.000209197 66.0791 14.7163 66.0791 32.8691C66.0791 51.022 51.2871 65.7381 33.04 65.7383C14.7928 65.7383 0 51.0221 0 32.8691C2.84944e-06 14.7161 14.7928 0 33.04 0ZM50.2334 20.6768C48.4749 20.5201 46.7046 20.7416 45.0459 21.3184C42.7383 22.1205 40.6493 23.6142 39.125 25.7227C39.0329 25.8486 38.9408 25.9787 38.8525 26.1123C38.7644 26.2458 38.6801 26.3754 38.5996 26.5127L38.5918 26.5166L26.5732 44.5498L30.6748 47.2539L42.957 28.8281C43.8939 27.4187 45.234 26.4368 46.7275 25.9326C48.8239 25.2183 51.2201 25.4477 53.209 26.7617C56.6144 29.0078 57.5436 33.5758 55.2861 36.96C53.0285 40.3443 48.436 41.2724 45.0342 39.0264C43.0456 37.7125 41.9017 35.6081 41.7441 33.4082L38.2422 38.6602C39.1752 40.4019 40.5425 41.9454 42.3125 43.1104C47.9873 46.8533 55.6358 45.3096 59.3984 39.668C63.1609 34.0262 61.6094 26.4142 55.9385 22.6709C54.1685 21.5059 52.2107 20.8525 50.2334 20.6768ZM23.126 36.9141C22.1891 38.3235 20.849 39.3054 19.3555 39.8096C17.2591 40.5239 14.8629 40.2945 12.874 38.9805C9.46856 36.7344 8.5394 32.1664 10.7969 28.7822C13.0545 25.3979 17.647 24.4698 21.0488 26.7158C23.0374 28.0297 24.1813 30.1341 24.3389 32.334L27.8408 27.082C26.9078 25.3403 25.5405 23.7968 23.7705 22.6318C18.0957 18.8888 10.4473 20.4326 6.68457 26.0742C2.9221 31.7159 4.47361 39.328 10.1445 43.0713C11.9145 44.2363 13.8723 44.8897 15.8496 45.0654C17.6081 45.222 19.3784 45.0006 21.0371 44.4238C23.3447 43.6217 25.4337 42.128 26.958 40.0195C27.0501 39.8936 27.1422 39.7635 27.2305 39.6299C27.3186 39.4964 27.4029 39.3667 27.4834 39.2295L27.4912 39.2256L39.5088 21.1924L35.4082 18.4883L23.126 36.9141Z" fill="#343E96"/>
</svg>
