<svg width="576" height="297" viewBox="0 0 576 297" fill="none" xmlns="http://www.w3.org/2000/svg">
<g clip-path="url(#clip0_213_1429)">
<path d="M234.84 214.111L358.334 27.9202L316.217 0L190.016 190.251C180.373 204.785 166.612 214.926 151.275 220.154C129.725 227.515 105.116 225.142 84.6602 211.589C49.6837 188.397 40.1328 141.251 63.3145 106.286C86.5148 71.3208 133.676 61.773 168.652 84.9472C189.108 98.4994 200.865 120.246 202.46 142.957L238.438 88.7292C228.869 70.7461 214.812 54.8208 196.637 42.7702C138.331 4.13427 59.7538 20.041 21.1053 78.3101C-17.5432 136.598 -1.63126 215.149 56.6753 253.803C74.8498 265.854 94.9901 272.602 115.297 274.401C133.36 276.013 151.572 273.715 168.597 267.763C192.316 259.476 213.754 244.07 229.425 222.268C230.39 220.97 231.317 219.617 232.226 218.245C233.134 216.873 234.006 215.501 234.84 214.111Z" fill="#343E96"/>
<path d="M341.161 82.8896L217.667 269.062L259.802 296.982L385.985 106.75C395.628 92.2149 409.389 82.0739 424.726 76.8458C446.276 69.4857 470.885 71.8587 491.341 85.411C526.317 108.604 535.868 155.749 512.687 190.714C489.486 225.68 442.325 235.227 407.349 212.053C386.893 198.501 375.136 176.754 373.541 154.044L337.563 208.271C347.132 226.254 361.19 242.18 379.364 254.23C437.671 292.866 516.247 276.959 554.896 218.69C593.544 160.421 577.632 81.8514 519.326 43.2155C501.151 31.1649 481.011 24.4166 460.704 22.6183C442.641 21.0053 424.429 23.3042 407.405 29.2553C383.685 37.5424 362.247 52.9486 346.576 74.7509C345.611 76.0486 344.684 77.402 343.775 78.7739C342.867 80.1458 341.995 81.5177 341.161 82.9082V82.8896Z" fill="#343E96"/>
</g>
<defs>
<clipPath id="clip0_213_1429">
<rect width="576" height="297" fill="white" transform="matrix(-1 0 0 1 576 0)"/>
</clipPath>
</defs>
</svg>
