<svg width="518" height="270" viewBox="0 0 518 270" fill="none" xmlns="http://www.w3.org/2000/svg">
<g clip-path="url(#clip0_32_596)">
<path d="M478.707 162.359V200.767C468.136 206.483 456.036 209.725 443.177 209.725C409.282 209.725 380.655 187.194 371.456 156.293L392.428 135.329L398.656 129.093C398.401 130.993 398.276 132.94 398.276 134.91C398.276 159.706 418.38 179.81 443.177 179.81C457.634 179.81 470.494 172.977 478.707 162.359Z" fill="white"/>
<path d="M350.274 179.392V197.65C350.134 201.846 349.638 205.956 348.824 209.943C341.882 244.085 311.695 269.774 275.505 269.774C239.315 269.774 209.012 243.977 202.156 209.726H233.095C239.199 227.278 255.882 239.858 275.505 239.858C293.872 239.858 309.655 228.837 316.613 213.053L350.274 179.392Z" fill="white"/>
<path d="M149.584 132.017V0H119.723V134.902C119.723 145.21 116.256 154.696 110.416 162.273C102.21 172.93 89.3194 179.802 74.8233 179.802C50.027 179.802 29.9231 159.698 29.9231 134.902C29.9231 110.106 50.027 90.002 74.8233 90.002C89.3194 90.002 102.21 96.8739 110.416 107.531V69.076C99.829 63.3442 87.7062 60.0866 74.8233 60.0866C33.4987 60.0866 0 93.5853 0 134.902C0 176.219 33.4987 209.725 74.8233 209.725C87.7062 209.725 99.829 206.468 110.416 200.728C119.84 195.625 128.053 188.551 134.491 180.058C143.457 168.23 148.987 153.641 149.584 137.795C149.631 136.841 149.647 135.872 149.647 134.902C149.647 133.933 149.631 132.971 149.584 132.017Z" fill="white"/>
<path d="M518 136.826C518 137.795 517.984 138.765 517.938 139.719L517.992 209.361H488.131L488.077 136.826C488.077 136.05 488.054 135.282 488.015 134.515V134.437H488.007C487.518 125.021 484.129 116.381 478.707 109.377C470.501 98.7589 457.634 91.9258 443.177 91.9258C441.207 91.9258 439.26 92.0499 437.36 92.3059C427.284 93.6011 418.256 98.247 411.431 105.072L392.428 124.083L385.843 130.66L369.098 147.405L355.54 160.963L350.274 166.229L346.179 170.325L329.612 186.721L326.734 189.575C324.725 191.468 322.616 193.236 320.413 194.896C307.902 204.296 292.351 209.865 275.505 209.865C258.659 209.865 243.108 204.296 230.605 194.896C220.343 187.186 212.13 176.902 206.933 164.996C202.915 155.821 200.689 145.691 200.689 135.042C200.689 93.7252 234.188 60.2266 275.505 60.2266C292.351 60.2266 307.902 65.7955 320.413 75.1959V60.2964H350.274V110.742L347.249 113.759L344.325 116.683L323.477 137.532L320.413 140.603L320.017 140.999C320.273 139.067 320.413 137.105 320.413 135.104V135.042C320.413 110.246 300.309 90.1419 275.505 90.1419C250.701 90.1419 230.605 110.246 230.605 135.042V135.104C230.62 146.591 234.948 157.069 242.061 164.996C250.282 174.172 262.219 179.942 275.505 179.942C277.529 179.942 279.523 179.81 281.469 179.547C292.343 178.104 301.984 172.776 308.957 164.996C308.988 165.035 320.413 153.758 320.413 153.758L330.232 143.938L350.91 123.268L357.487 116.683L357.588 116.583L390.264 83.9137C403.807 70.3793 422.514 62.0027 443.177 62.0027C446.768 62.0027 450.305 62.2587 453.756 62.7473C462.676 64.0038 471.091 66.8425 478.707 70.961C502.108 83.6035 518 108.361 518 136.826Z" fill="white"/>
<path d="M190.095 81.0205H160.234V209.726H190.095V81.0205Z" fill="white"/>
<path d="M175.172 60.0866C183.418 60.0866 190.103 53.402 190.103 45.1561C190.103 36.9102 183.418 30.2256 175.172 30.2256C166.926 30.2256 160.242 36.9102 160.242 45.1561C160.242 53.402 166.926 60.0866 175.172 60.0866Z" fill="white"/>
</g>
<defs>
<clipPath id="clip0_32_596">
<rect width="518" height="269.773" fill="white"/>
</clipPath>
</defs>
</svg>
