<svg width="24" height="24" viewBox="0 0 24 24" fill="none" xmlns="http://www.w3.org/2000/svg">
<path d="M9.79501 1.69422C10.5989 0.890781 11.6889 0.439453 12.8255 0.439453C13.9621 0.439453 15.0521 0.890781 15.856 1.69422C16.3488 2.18661 16.7139 2.79184 16.9198 3.45737C17.1256 4.1229 17.1658 4.82861 17.037 5.51322C17.7216 5.38441 18.4273 5.42466 19.0929 5.63047C19.7584 5.83628 20.3636 6.20143 20.856 6.69422C21.6594 7.49812 22.1108 8.58816 22.1108 9.72472C22.1108 10.8613 21.6594 11.9513 20.856 12.7552L14.063 19.5482C14.0163 19.5951 13.9901 19.6586 13.9901 19.7247C13.9901 19.7909 14.0163 19.8544 14.063 19.9012L16.68 22.5192C16.7497 22.5889 16.8049 22.6716 16.8426 22.7626C16.8803 22.8536 16.8997 22.9512 16.8997 23.0497C16.8997 23.1482 16.8803 23.2458 16.8426 23.3368C16.8049 23.4278 16.7497 23.5106 16.68 23.5802C16.6103 23.6499 16.5276 23.7051 16.4366 23.7429C16.3456 23.7806 16.248 23.8 16.1495 23.8C16.051 23.8 15.9534 23.7806 15.8624 23.7429C15.7714 23.7051 15.6887 23.6499 15.619 23.5802L13.002 20.9622C12.8395 20.7997 12.7106 20.6068 12.6226 20.3945C12.5347 20.1821 12.4894 19.9545 12.4894 19.7247C12.4894 19.4949 12.5347 19.2673 12.6226 19.055C12.7106 18.8426 12.8395 18.6497 13.002 18.4872L19.795 11.6942C20.0536 11.4356 20.2588 11.1285 20.3988 10.7906C20.5388 10.4527 20.6108 10.0905 20.6108 9.72472C20.6108 9.35895 20.5388 8.99676 20.3988 8.65883C20.2588 8.32091 20.0536 8.01386 19.795 7.75522C19.5364 7.49658 19.2293 7.29142 18.8914 7.15144C18.5535 7.01147 18.1913 6.93943 17.8255 6.93943C17.4597 6.93943 17.0976 7.01147 16.7596 7.15144C16.4217 7.29142 16.1146 7.49658 15.856 7.75522L9.95601 13.6552C9.88585 13.7275 9.80091 13.7838 9.70701 13.8202C9.54659 13.8863 9.36821 13.8946 9.20233 13.8438C9.03646 13.7929 8.89337 13.6861 8.79752 13.5415C8.70167 13.3969 8.65899 13.2235 8.67677 13.0509C8.69455 12.8783 8.77168 12.7172 8.89501 12.5952L14.795 6.69422C15.3174 6.17188 15.6108 5.46343 15.6108 4.72472C15.6108 3.98601 15.3174 3.27756 14.795 2.75522C14.2727 2.23288 13.5642 1.93943 12.8255 1.93943C12.0868 1.93943 11.3784 2.23288 10.856 2.75522L2.93101 10.6802C2.86134 10.7499 2.77864 10.8051 2.68761 10.8429C2.59659 10.8806 2.49903 10.9 2.40051 10.9C2.30199 10.9 2.20443 10.8806 2.1134 10.8429C2.02238 10.8051 1.93968 10.7499 1.87001 10.6802C1.80034 10.6106 1.74508 10.5278 1.70738 10.4368C1.66967 10.3458 1.65027 10.2482 1.65027 10.1497C1.65027 10.0512 1.66967 9.95364 1.70738 9.86262C1.74508 9.77159 1.80034 9.68889 1.87001 9.61922L9.79501 1.69422Z" fill="black"/>
<path d="M12.42 4.06896C12.4897 3.99927 12.5724 3.94398 12.6634 3.90626C12.7544 3.86854 12.852 3.84912 12.9505 3.84912C13.0491 3.84912 13.1466 3.86854 13.2376 3.90626C13.3287 3.94398 13.4114 3.99927 13.481 4.06896C13.5507 4.13861 13.606 4.22131 13.6437 4.31234C13.6814 4.40336 13.7009 4.50093 13.7009 4.59946C13.7009 4.69799 13.6814 4.79556 13.6437 4.88658C13.606 4.97761 13.5507 5.06031 13.481 5.12996L7.33002 11.28C6.80852 11.803 6.51567 12.5114 6.51567 13.25C6.51567 13.9885 6.80852 14.697 7.33002 15.22C7.85302 15.7415 8.56145 16.0343 9.30002 16.0343C10.0386 16.0343 10.747 15.7415 11.27 15.22L17.42 9.06896C17.4897 8.99927 17.5724 8.94398 17.6634 8.90626C17.7544 8.86854 17.852 8.84912 17.9505 8.84912C18.0491 8.84912 18.1466 8.86854 18.2376 8.90626C18.3287 8.94398 18.4114 8.99927 18.481 9.06896C18.5507 9.13861 18.606 9.22131 18.6437 9.31234C18.6814 9.40336 18.7009 9.50093 18.7009 9.59946C18.7009 9.69799 18.6814 9.79556 18.6437 9.88658C18.606 9.97761 18.5507 10.0603 18.481 10.13L12.33 16.28C11.5264 17.0836 10.4365 17.535 9.30002 17.535C8.16355 17.535 7.07363 17.0836 6.27002 16.28C5.46641 15.4764 5.01495 14.3864 5.01495 13.25C5.01495 12.1135 5.46641 11.0236 6.27002 10.22L12.42 4.06896Z" fill="black"/>
</svg>
